<?xml version="1.0" encoding="UTF-8"?>
<svg width="571px" height="450px" viewBox="0 0 571 450" version="1.1" xmlns="http://www.w3.org/2000/svg" xmlns:xlink="http://www.w3.org/1999/xlink">
    <title>core_web_vitals</title>
    <g id="Solutions-by-Technology" stroke="none" stroke-width="1" fill="none" fill-rule="evenodd">
        <g id="Core-Web-Vitals" transform="translate(-151.000000, -188.000000)" fill-rule="nonzero">
            <g id="core_web_vitals" transform="translate(151.311273, 188.000000)">
                <circle id="Oval" fill="#BACBDB" cx="478.002047" cy="352.152318" r="91.8874172"></circle>
                <circle id="Oval-Copy-3" fill="#BACBDB" cx="99.3377483" cy="350.662252" r="99.3377483"></circle>
                <rect id="Rectangle" fill="#4A79A8" x="410.611322" y="52.3194613" width="123.178808" height="134.10596" rx="10"></rect>
                <rect id="Rectangle" fill="#B7D5F4" x="57.7238976" y="53.3856865" width="135.103949" height="116" rx="10"></rect>
                <g id="Group" transform="translate(97.170846, 78.431775)">
                    <rect id="Rectangle" fill="#FFFFFF" x="4.97681543" y="4.97874156" width="398.145234" height="265.532883" rx="4.66666667"></rect>
                    <path d="M386.532665,275.523558 L21.5662002,275.523558 C9.6882007,275.523558 0,265.831608 0,253.949011 L0,21.5745468 C0,9.69195024 9.6882007,0 21.5662002,0 L386.532665,0 C398.410664,0 408.098865,9.69195024 408.098865,21.5745468 L408.098865,253.949011 C408.098865,265.831608 398.410664,275.523558 386.532665,275.523558 Z M21.5662002,9.95748313 C15.1626977,9.95748313 9.95363085,15.168566 9.95363085,21.5745468 L9.95363085,253.949011 C9.95363085,260.354992 15.1626977,265.566075 21.5662002,265.566075 L386.532665,265.566075 C392.936167,265.566075 398.145234,260.354992 398.145234,253.949011 L398.145234,21.5745468 C398.145234,15.168566 392.936167,9.95748313 386.532665,9.95748313 L21.5662002,9.95748313 Z" id="Shape" fill="#1B5289"></path>
                </g>
                <g id="Group" transform="translate(152.048531, 126.891527)" fill="#1B5289">
                    <ellipse id="Oval" cx="4.57867019" cy="4.58044224" rx="4.57867019" ry="4.58044224"></ellipse>
                    <ellipse id="Oval" cx="16.7884574" cy="4.58044224" rx="4.57867019" ry="4.58044224"></ellipse>
                    <ellipse id="Oval" cx="28.9650658" cy="4.58044224" rx="4.57867019" ry="4.58044224"></ellipse>
                </g>
                <path d="M461.971417,319.86755 L134.994644,319.86755 L134.994644,112.751901 L461.971417,112.751901 L461.971417,319.900741 L461.971417,319.86755 Z M141.630397,313.229228 L455.335663,313.229228 L455.335663,119.390223 L141.630397,119.390223 L141.630397,313.262419 L141.630397,313.229228 Z" id="Shape" fill="#1B5289"></path>
                <path d="M458.65354,150.889061 L138.312521,150.889061 C137.383515,150.889061 136.653582,150.158846 136.653582,149.22948 C136.653582,148.300115 137.383515,147.5699 138.312521,147.5699 L458.65354,147.5699 C459.582546,147.5699 460.312479,148.300115 460.312479,149.22948 C460.312479,150.158846 459.582546,150.889061 458.65354,150.889061 Z" id="Path" fill="#1B5289"></path>
                <g id="Group" transform="translate(61.171881, 186.263020)" fill="#FB7B32">
                    <path d="M0,39.871422 C0,35.2909798 3.71602219,31.5735194 8.29469238,31.5735194 L8.29469238,31.5735194 C12.8733626,31.5735194 16.5893848,35.2909798 16.5893848,39.871422 L16.5893848,39.871422 C16.5893848,44.4518643 12.8733626,48.1693246 8.29469238,48.1693246 L8.29469238,48.1693246 C3.71602219,48.1693246 0,44.4518643 0,39.871422 Z" id="Path"></path>
                    <path d="M8.29469238,16.6041031 C6.10489359,16.6041031 3.98145234,15.7079296 2.42205017,14.1479239 C0.862648007,12.6211099 0,10.4636552 0,8.30620051 C0,7.74194313 0.0331787695,7.21087736 0.165893848,6.6798116 C0.265430156,6.14874583 0.431324004,5.61768006 0.630396621,5.11980591 C0.829469238,4.62193175 1.09489939,4.1240576 1.39350832,3.69256666 C1.69211725,3.22788411 2.02390494,2.79639318 2.42205017,2.43128546 C2.78701664,2.03298614 3.21834064,1.70107003 3.68284342,1.40234554 C4.14734619,1.10362105 4.61184896,0.838088163 5.10953051,0.638938501 C5.60721205,0.439788838 6.13807236,0.273830786 6.66893267,0.174255955 C7.7306533,-0.0580853182 8.82555269,-0.0580853182 9.92045209,0.174255955 C10.4513124,0.273830786 10.9489939,0.439788838 11.4466755,0.638938501 C11.944357,0.838088163 12.4420386,1.10362105 12.9065413,1.40234554 C13.3378653,1.70107003 13.7691893,2.03298614 14.1673346,2.43128546 C14.532301,2.79639318 14.8972675,3.22788411 15.1958764,3.69256666 C15.4944854,4.1240576 15.7267368,4.62193175 15.9589881,5.11980591 C16.1580608,5.61768006 16.3239546,6.14874583 16.4234909,6.6798116 C16.5230272,7.21087736 16.5893848,7.74194313 16.5893848,8.30620051 C16.5893848,10.4968468 15.693558,12.6211099 14.1341558,14.1479239 C12.6079324,15.7079296 10.4513124,16.6041031 8.29469238,16.6041031 L8.29469238,16.6041031 Z" id="Path"></path>
                </g>
                <g id="Group" transform="translate(514.592946, 207.424684)" fill="#FB7B32">
                    <path d="M8.29469238,46.5354383 C7.76383207,46.5354383 7.19979298,46.5354383 6.66893267,46.3694802 C6.13807236,46.2699054 5.64039082,46.1039473 5.14270927,45.9047977 C4.61184896,45.705648 4.14734619,45.4401151 3.68284342,45.1413906 C3.25151941,44.8426661 2.82019541,44.51075 2.42205017,44.1124507 C0.895826777,42.5856366 0,40.4281819 0,38.2375357 C0,37.7064699 0.066357539,37.1754041 0.165893848,36.6111467 C0.265430156,36.080081 0.431324004,35.5822068 0.630396621,35.0843327 C0.829469238,34.5532669 1.09489939,34.0885844 1.39350832,33.6239018 C1.69211725,33.1924109 2.05708371,32.7609199 2.42205017,32.3958122 C2.82019541,31.9975129 3.25151941,31.6655968 3.68284342,31.3668723 C4.14734619,31.0349562 4.61184896,30.8026149 5.10953051,30.5702736 C5.60721205,30.371124 6.13807236,30.2051659 6.66893267,30.1055911 C7.7306533,29.9064414 8.85873146,29.9064414 9.92045209,30.1055911 C10.4513124,30.2051659 10.9821727,30.371124 11.4798543,30.5702736 C11.9775358,30.8026149 12.4420386,31.0349562 12.9065413,31.3668723 C13.3710441,31.6655968 13.7691893,31.9975129 14.1673346,32.3958122 C14.532301,32.7609199 14.8972675,33.1924109 15.1958764,33.6239018 C15.4944854,34.0885844 15.7599155,34.5532669 15.9589881,35.0843327 C16.1580608,35.5822068 16.3239546,36.080081 16.4234909,36.6111467 C16.5230272,37.1754041 16.5893848,37.7064699 16.5893848,38.2375357 C16.5893848,40.4281819 15.693558,42.552445 14.1673346,44.1124507 C13.7691893,44.51075 13.3710441,44.8426661 12.9065413,45.1413906 C12.4420386,45.4401151 11.9775358,45.705648 11.4798543,45.9047977 C10.9821727,46.1039473 10.4513124,46.2699054 9.92045209,46.3694802 C9.38959177,46.5022467 8.82555269,46.5354383 8.29469238,46.5354383 L8.29469238,46.5354383 Z" id="Path"></path>
                    <path d="M8.29469238,16.563414 C6.10489359,16.563414 3.98145234,15.7004322 2.42205017,14.1404265 C0.862648007,12.5804208 0,10.4561577 0,8.29870305 C0,6.14124838 0.895826777,3.95060209 2.42205017,2.42378801 C2.82019541,2.02548868 3.25151941,1.69357258 3.68284342,1.39484808 C4.14734619,1.09612359 4.61184896,0.830590707 5.10953051,0.631441045 C5.64039082,0.432291382 6.13807236,0.26633333 6.66893267,0.166758499 C9.38959177,-0.397498879 12.242966,0.498674603 14.1673346,2.42378801 C15.693558,3.95060209 16.5893848,6.10805676 16.5893848,8.29870305 C16.5893848,8.82976882 16.5230272,9.36083459 16.4234909,9.89190035 C16.3239546,10.4229661 16.1580608,10.9540319 15.9589881,11.451906 C15.7599155,11.9497802 15.4944854,12.4476544 15.1958764,12.8791453 C14.8972675,13.3438278 14.532301,13.7753188 14.1673346,14.1404265 C12.6079324,15.7004322 10.4844912,16.563414 8.29469238,16.563414 L8.29469238,16.563414 Z" id="Path"></path>
                </g>
                <path d="M283.038313,257.301364 C281.180302,257.301364 279.488185,256.206041 278.725073,254.480077 L262.998336,218.732713 L250.058616,238.415338 C249.195968,239.743002 247.702924,240.539601 246.143521,240.539601 L156.892631,240.539601 C154.304687,240.539601 152.181246,238.448529 152.181246,235.826392 C152.181246,233.204255 154.271509,231.113183 156.892631,231.113183 L243.621935,231.113183 L259.912711,206.31905 C260.874895,204.891811 262.533834,204.095213 264.225951,204.227979 C265.951247,204.360745 267.444291,205.456069 268.141046,207.016074 L282.540632,239.776194 L303.60915,179.666187 C304.272726,177.807457 305.998022,176.546176 307.955569,176.512984 L308.055105,176.512984 C309.979474,176.512984 311.737949,177.707882 312.434703,179.500229 L333.868188,234.200003 L335.16216,232.706381 C336.057987,231.677441 337.351959,231.079992 338.712288,231.079992 L438.878994,231.079992 C441.466938,231.079992 443.590379,233.171063 443.590379,235.7932 C443.590379,238.415338 441.500116,240.506409 438.878994,240.506409 L340.83573,240.506409 L335.858914,246.248558 C334.764015,247.476647 333.138255,248.074096 331.512495,247.808563 C329.886736,247.543031 328.526406,246.414516 327.929188,244.887702 L308.287357,194.735178 L287.45109,254.114969 C286.820693,255.940508 285.128576,257.168598 283.204207,257.268172 C283.137849,257.268172 283.071492,257.268172 283.038313,257.268172 L283.038313,257.301364 Z" id="Path" fill="#FB7B32"></path>
                <g id="Group" transform="translate(410.610682, 280.734641)">
                    <g>
                        <ellipse id="Oval" fill="#FFFFFF" cx="68.2155501" cy="68.241951" rx="64.8976732" ry="64.92279"></ellipse>
                        <path d="M68.2155501,136.483902 C30.5908255,136.483902 0,105.881237 0,68.241951 C0,30.6026648 30.5908255,0 68.2155501,0 C105.840275,0 136.4311,30.6026648 136.4311,68.241951 C136.4311,105.881237 105.840275,136.483902 68.2155501,136.483902 Z M68.2155501,6.63832209 C34.2404901,6.63832209 6.6357539,34.2869336 6.6357539,68.241951 C6.6357539,102.196968 34.2736689,129.84558 68.2155501,129.84558 C102.157431,129.84558 129.795346,102.196968 129.795346,68.241951 C129.795346,34.2869336 102.157431,6.63832209 68.2155501,6.63832209 Z" id="Shape" fill="#1B5289"></path>
                    </g>
                    <g transform="translate(33.411021, 41.157597)" id="Rectangle">
                        <rect fill="#1B5289" x="0" y="0" width="13.9019044" height="54.1355166"></rect>
                        <rect fill="#1B5289" x="18.5469322" y="11.583872" width="13.9019044" height="42.5516446"></rect>
                        <rect fill="#FB7B32" x="37.1270431" y="35.1831071" width="13.9019044" height="18.9524096"></rect>
                        <rect fill="#1B5289" x="55.6739752" y="20.8111397" width="13.9019044" height="33.3243769"></rect>
                    </g>
                </g>
                <g id="Group" transform="translate(233.004729, 0.000000)">
                    <g>
                        <ellipse id="Oval" fill="#FFFFFF" cx="68.2155501" cy="68.241951" rx="64.8976732" ry="64.92279"></ellipse>
                        <path d="M68.2155501,136.483902 C30.5908255,136.483902 0,105.881237 0,68.241951 C0,30.6026648 30.5908255,0 68.2155501,0 C105.840275,0 136.4311,30.6026648 136.4311,68.241951 C136.4311,105.881237 105.840275,136.483902 68.2155501,136.483902 Z M68.2155501,6.63832209 C34.2404901,6.63832209 6.6357539,34.2869336 6.6357539,68.241951 C6.6357539,102.196968 34.2736689,129.84558 68.2155501,129.84558 C102.157431,129.84558 129.795346,102.196968 129.795346,68.241951 C129.795346,34.2869336 102.19061,6.63832209 68.2155501,6.63832209 Z" id="Shape" fill="#1B5289"></path>
                    </g>
                    <g transform="translate(45.023590, 19.383900)" id="Path">
                        <path d="M20.4713008,40.9584473 C9.15734039,40.9584473 0,31.7975628 0,20.4792236 C0,9.16088448 9.15734039,0 20.4713008,0 C31.7852612,0 40.9426016,9.16088448 40.9426016,20.4792236 L20.4713008,20.4792236 L20.4713008,40.9584473" fill="#FB7B32"></path>
                        <path d="M27.2729485,27.3166954 L46.3839198,27.3166954 C46.3839198,37.8716275 37.8237972,46.435063 27.2729485,46.435063 L27.2729485,27.3166954 L27.2729485,27.3166954 Z" fill="#1B5289"></path>
                    </g>
                    <g transform="translate(33.809166, 71.601548)">
                        <g fill="#FB7B32">
                            <path d="M3.18516187,38.992898 C2.32251387,38.992898 1.5262234,38.6609819 0.929005546,38.0635329 C0.331787695,37.4660839 0,36.6694853 0,35.839695 C0,35.6405453 0,35.4082041 0.066357539,35.2090544 C0.0995363085,35.0099047 0.165893848,34.8107551 0.232251387,34.6116054 C0.331787695,34.4124558 0.431324004,34.2464977 0.530860312,34.0805397 C0.66357539,33.9145816 0.796290468,33.7486236 0.929005546,33.5826655 C1.22761447,33.3171326 1.55940217,33.0515997 1.9575474,32.9188333 C2.7206591,32.5869172 3.61648588,32.5869172 4.37959758,32.9188333 C4.77774281,33.0515997 5.10953051,33.3171326 5.40813943,33.5826655 C5.54085451,33.7486236 5.67356959,33.9145816 5.80628467,34.0805397 C5.90582097,34.2464977 6.00535728,34.4124558 6.07171482,34.6116054 C6.17125113,34.8107551 6.23760867,35.0099047 6.27078744,35.2090544 C6.30396621,35.4082041 6.33714498,35.6405453 6.33714498,35.839695 C6.33714498,36.6694853 6.00535728,37.4660839 5.40813943,38.0635329 C4.81092158,38.6609819 4.01463111,38.992898 3.18516187,38.992898 Z" id="Path"></path>
                            <path d="M0,24.9528468 C0,23.1936914 1.42668709,21.7664522 3.18516187,21.7664522 L3.18516187,21.7664522 C4.91045789,21.7664522 6.33714498,23.1936914 6.33714498,24.9528468 L6.33714498,24.9528468 C6.33714498,26.6788105 4.91045789,28.1060498 3.18516187,28.1060498 L3.18516187,28.1060498 C1.42668709,28.1060498 0,26.6788105 0,24.9528468 Z M0,14.0659986 C0,12.3068432 1.42668709,10.879604 3.18516187,10.879604 L3.18516187,10.879604 C4.91045789,10.879604 6.33714498,12.3068432 6.33714498,14.0659986 L6.33714498,14.0659986 C6.33714498,15.7919623 4.91045789,17.2192016 3.18516187,17.2192016 L3.18516187,17.2192016 C1.42668709,17.2192016 0,15.7919623 0,14.0659986 Z" id="Shape"></path>
                            <path d="M3.18516187,6.33235334 C2.95291049,6.33235334 2.75383787,6.33235334 2.55476525,6.26597012 C2.35569264,6.26597012 2.15662002,6.16639529 1.9575474,6.06682046 C1.75847478,6.00043724 1.59258094,5.90086241 1.42668709,5.80128757 C1.22761447,5.66852113 1.06172062,5.53575469 0.929005546,5.40298825 C0.630396621,5.10426376 0.398145234,4.73915604 0.232251387,4.37404833 C0.165893848,4.17489866 0.0995363085,3.975749 0.066357539,3.77659934 C0.066357539,3.57744968 4.71498673e-14,3.37830001 4.71498673e-14,3.17915035 C4.71498673e-14,2.74765941 0.0995363085,2.34936009 0.232251387,1.95106076 C0.398145234,1.55276144 0.630396621,1.22084534 0.929005546,0.922120841 C1.22761447,0.623396348 1.55940217,0.391055075 1.9575474,0.225097023 C3.11880433,-0.239585523 4.51231265,0.02594736 5.40813943,0.922120841 C5.70674836,1.22084534 5.93899974,1.55276144 6.10489359,1.95106076 C6.23760867,2.34936009 6.33714498,2.74765941 6.33714498,3.17915035 C6.33714498,3.37830001 6.33714498,3.57744968 6.27078744,3.77659934 C6.27078744,3.975749 6.17125113,4.17489866 6.10489359,4.37404833 C6.00535728,4.57319799 5.90582097,4.73915604 5.80628467,4.90511409 C5.67356959,5.10426376 5.54085451,5.2370302 5.40813943,5.40298825 C5.10953051,5.70171274 4.74456404,5.93405402 4.37959758,6.06682046 C3.98145234,6.23277851 3.58330711,6.33235334 3.18516187,6.33235334 L3.18516187,6.33235334 Z" id="Path"></path>
                        </g>
                        <g transform="translate(16.987530, 2.946809)" id="Path">
                            <path d="M48.6732549,3.78384359 L1.89118986,3.78384359 C0.829469238,3.78384359 0,2.92086172 0,1.89192179 C0,0.862981871 0.862648007,0 1.89118986,0 L48.6732549,0 C49.7349755,0 50.5644447,0.862981871 50.5644447,1.89192179 C50.5644447,2.92086172 49.7017967,3.78384359 48.6732549,3.78384359 Z" fill="#1B5289"></path>
                            <path d="M48.6732549,18.5541102 L1.89118986,18.5541102 C0.829469238,18.5541102 0,17.6911284 0,16.6621884 C0,15.6332485 0.862648007,14.7702666 1.89118986,14.7702666 L48.6732549,14.7702666 C49.7349755,14.7702666 50.5644447,15.6332485 50.5644447,16.6621884 C50.5644447,17.6911284 49.7017967,18.5541102 48.6732549,18.5541102 Z" fill="#FB7B32"></path>
                            <path d="M48.6732549,33.2911853 L1.89118986,33.2911853 C0.829469238,33.2911853 0,32.4282034 0,31.3992635 C0,30.3703235 0.862648007,29.5073417 1.89118986,29.5073417 L48.6732549,29.5073417 C49.7349755,29.5073417 50.5644447,30.3703235 50.5644447,31.3992635 C50.5644447,32.4282034 49.7017967,33.2911853 48.6732549,33.2911853 Z" fill="#FB7B32"></path>
                        </g>
                    </g>
                </g>
                <g id="Group" transform="translate(32.472246, 280.734641)">
                    <g>
                        <ellipse id="Oval" fill="#FFFFFF" cx="68.2155501" cy="68.241951" rx="64.8976732" ry="64.92279"></ellipse>
                        <path d="M68.2155501,136.483902 C30.5908255,136.483902 0,105.881237 0,68.241951 C0,30.6026648 30.5908255,0 68.2155501,0 C105.840275,0 136.4311,30.6026648 136.4311,68.241951 C136.4311,105.881237 105.840275,136.483902 68.2155501,136.483902 Z M68.2155501,6.63832209 C34.2404901,6.63832209 6.6357539,34.2869336 6.6357539,68.241951 C6.6357539,102.196968 34.2736689,129.84558 68.2155501,129.84558 C102.157431,129.84558 129.795346,102.196968 129.795346,68.241951 C129.795346,34.2869336 102.157431,6.63832209 68.2155501,6.63832209 Z" id="Shape" fill="#1B5289"></path>
                    </g>
                    <g transform="translate(23.556926, 43.381435)" fill="#FB7B32" id="Path">
                        <polygon points="0 28.1464856 0 19.3839005 30.4912892 7.23577107 30.4912892 15.6664401 7.96290468 23.8315763 30.4912892 31.863946 30.4912892 40.2946151 0 28.1464856"></polygon>
                        <polygon points="32.4488366 47.7295358 48.4410035 0 56.868411 0 40.876244 47.7295358 32.4488366 47.7295358"></polygon>
                        <polygon points="58.8259584 40.2946151 58.8259584 31.863946 81.3543429 23.8315763 58.8259584 15.6664401 58.8259584 7.23577107 89.3172475 19.3839005 89.3172475 28.1464856 58.8259584 40.2946151"></polygon>
                    </g>
                </g>
            </g>
        </g>
    </g>
</svg>